<mxfile host="app.diagrams.net" modified="2020-05-11T11:04:58.779Z" agent="5.0 (Macintosh; Intel Mac OS X 10_15_2) AppleWebKit/537.36 (KHTML, like Gecko) Chrome/81.0.4044.138 Safari/537.36" etag="iKl3shGD1CSzau-ZDNQ-" version="13.0.6" type="github" pages="3">
  <diagram id="CBDz3zqInydYnpbgPdc8" name="Architecture ">
    <mxGraphModel dx="959" dy="546" grid="0" gridSize="10" guides="1" tooltips="1" connect="1" arrows="1" fold="1" page="1" pageScale="1" pageWidth="1100" pageHeight="850" math="0" shadow="0">
      <root>
        <mxCell id="0" />
        <mxCell id="1" parent="0" />
        <mxCell id="l-rTfrSbGHxLT8yHpG9K-1" value="" style="rounded=0;whiteSpace=wrap;html=1;dashed=1;gradientColor=none;fillColor=none;" parent="1" vertex="1">
          <mxGeometry x="149" y="234" width="680" height="321" as="geometry" />
        </mxCell>
        <mxCell id="O35m1b_gPNPNUmbekiKG-8" value="" style="edgeStyle=orthogonalEdgeStyle;rounded=0;orthogonalLoop=1;jettySize=auto;html=1;exitX=0.9;exitY=1;exitDx=0;exitDy=0;exitPerimeter=0;" parent="1" source="O35m1b_gPNPNUmbekiKG-6" target="O35m1b_gPNPNUmbekiKG-7" edge="1">
          <mxGeometry relative="1" as="geometry">
            <mxPoint x="729" y="294" as="sourcePoint" />
          </mxGeometry>
        </mxCell>
        <mxCell id="O35m1b_gPNPNUmbekiKG-6" value="&lt;font style=&quot;font-size: 24px&quot;&gt;APP&lt;/font&gt;" style="rounded=1;whiteSpace=wrap;html=1;arcSize=0;fillColor=#fff2cc;strokeColor=#d6b656;" parent="1" vertex="1">
          <mxGeometry x="189" y="164" width="600" height="60" as="geometry" />
        </mxCell>
        <mxCell id="O35m1b_gPNPNUmbekiKG-10" value="" style="edgeStyle=orthogonalEdgeStyle;rounded=0;orthogonalLoop=1;jettySize=auto;html=1;" parent="1" source="O35m1b_gPNPNUmbekiKG-7" edge="1">
          <mxGeometry relative="1" as="geometry">
            <mxPoint x="729" y="553" as="targetPoint" />
          </mxGeometry>
        </mxCell>
        <mxCell id="O35m1b_gPNPNUmbekiKG-7" value="&lt;font style=&quot;font-size: 24px&quot;&gt;Sender Meta Buffer&lt;/font&gt;" style="rounded=1;whiteSpace=wrap;html=1;arcSize=0;fillColor=#ffe6cc;strokeColor=#d79b00;" parent="1" vertex="1">
          <mxGeometry x="649" y="424" width="160" height="80" as="geometry" />
        </mxCell>
        <mxCell id="O35m1b_gPNPNUmbekiKG-12" style="edgeStyle=orthogonalEdgeStyle;rounded=0;orthogonalLoop=1;jettySize=auto;html=1;entryX=0.5;entryY=1;entryDx=0;entryDy=0;" parent="1" target="O35m1b_gPNPNUmbekiKG-14" edge="1">
          <mxGeometry relative="1" as="geometry">
            <mxPoint x="519.2857142857142" y="454" as="targetPoint" />
            <mxPoint x="519" y="553" as="sourcePoint" />
            <Array as="points" />
          </mxGeometry>
        </mxCell>
        <mxCell id="O35m1b_gPNPNUmbekiKG-9" value="&lt;font style=&quot;font-size: 24px&quot;&gt;Scheduler&lt;/font&gt;" style="rounded=1;whiteSpace=wrap;html=1;arcSize=0;fillColor=#ffe6cc;strokeColor=#d79b00;" parent="1" vertex="1">
          <mxGeometry x="169" y="554" width="640" height="60" as="geometry" />
        </mxCell>
        <mxCell id="O35m1b_gPNPNUmbekiKG-25" value="" style="edgeStyle=orthogonalEdgeStyle;rounded=0;orthogonalLoop=1;jettySize=auto;html=1;entryX=1;entryY=0.5;entryDx=0;entryDy=0;" parent="1" source="O35m1b_gPNPNUmbekiKG-14" target="eUcBHs-z1_nmx1WXnV4A-1" edge="1">
          <mxGeometry relative="1" as="geometry">
            <mxPoint x="379" y="464" as="targetPoint" />
          </mxGeometry>
        </mxCell>
        <mxCell id="eUcBHs-z1_nmx1WXnV4A-6" style="edgeStyle=orthogonalEdgeStyle;rounded=0;orthogonalLoop=1;jettySize=auto;html=1;exitX=0.25;exitY=0;exitDx=0;exitDy=0;entryX=0.716;entryY=1;entryDx=0;entryDy=0;entryPerimeter=0;" parent="1" source="O35m1b_gPNPNUmbekiKG-14" target="O35m1b_gPNPNUmbekiKG-20" edge="1">
          <mxGeometry relative="1" as="geometry" />
        </mxCell>
        <mxCell id="O35m1b_gPNPNUmbekiKG-14" value="&lt;font style=&quot;font-size: 24px&quot;&gt;Feature extractor&lt;/font&gt;" style="rounded=0;whiteSpace=wrap;html=1;fillColor=#ffe6cc;strokeColor=#d79b00;" parent="1" vertex="1">
          <mxGeometry x="414" y="424" width="210" height="80" as="geometry" />
        </mxCell>
        <mxCell id="O35m1b_gPNPNUmbekiKG-34" style="edgeStyle=orthogonalEdgeStyle;rounded=0;orthogonalLoop=1;jettySize=auto;html=1;entryX=0.164;entryY=0.021;entryDx=0;entryDy=0;entryPerimeter=0;exitX=0.5;exitY=1;exitDx=0;exitDy=0;" parent="1" source="eUcBHs-z1_nmx1WXnV4A-1" target="O35m1b_gPNPNUmbekiKG-9" edge="1">
          <mxGeometry relative="1" as="geometry">
            <mxPoint x="274" y="514" as="sourcePoint" />
          </mxGeometry>
        </mxCell>
        <mxCell id="O35m1b_gPNPNUmbekiKG-23" value="" style="edgeStyle=orthogonalEdgeStyle;rounded=0;orthogonalLoop=1;jettySize=auto;html=1;" parent="1" source="O35m1b_gPNPNUmbekiKG-20" target="O35m1b_gPNPNUmbekiKG-22" edge="1">
          <mxGeometry relative="1" as="geometry" />
        </mxCell>
        <mxCell id="O35m1b_gPNPNUmbekiKG-20" value="&lt;font style=&quot;font-size: 24px&quot;&gt;Collector&lt;/font&gt;" style="rounded=1;whiteSpace=wrap;html=1;fillColor=#dae8fc;strokeColor=#6c8ebf;" parent="1" vertex="1">
          <mxGeometry x="359" y="304" width="150" height="60" as="geometry" />
        </mxCell>
        <mxCell id="O35m1b_gPNPNUmbekiKG-29" value="&lt;font style=&quot;font-size: 24px&quot;&gt;Trainer&lt;/font&gt;" style="rounded=1;whiteSpace=wrap;html=1;fillColor=#dae8fc;strokeColor=#6c8ebf;" parent="1" vertex="1">
          <mxGeometry x="189" y="304" width="150" height="60" as="geometry" />
        </mxCell>
        <mxCell id="O35m1b_gPNPNUmbekiKG-22" value="&lt;font style=&quot;font-size: 18px&quot;&gt;Replay Buffer&lt;/font&gt;" style="rounded=1;whiteSpace=wrap;html=1;fillColor=#dae8fc;strokeColor=#6c8ebf;" parent="1" vertex="1">
          <mxGeometry x="539" y="304" width="150" height="60" as="geometry" />
        </mxCell>
        <mxCell id="O35m1b_gPNPNUmbekiKG-28" value="" style="endArrow=classic;html=1;entryX=0.06;entryY=1;entryDx=0;entryDy=0;entryPerimeter=0;" parent="1" target="O35m1b_gPNPNUmbekiKG-20" edge="1">
          <mxGeometry width="50" height="50" relative="1" as="geometry">
            <mxPoint x="368" y="424" as="sourcePoint" />
            <mxPoint x="368" y="374" as="targetPoint" />
          </mxGeometry>
        </mxCell>
        <mxCell id="O35m1b_gPNPNUmbekiKG-32" value="" style="endArrow=classic;html=1;entryX=0.275;entryY=1.04;entryDx=0;entryDy=0;entryPerimeter=0;" parent="1" target="O35m1b_gPNPNUmbekiKG-20" edge="1">
          <mxGeometry width="50" height="50" relative="1" as="geometry">
            <mxPoint x="399" y="464" as="sourcePoint" />
            <mxPoint x="449" y="414" as="targetPoint" />
          </mxGeometry>
        </mxCell>
        <mxCell id="O35m1b_gPNPNUmbekiKG-33" value="" style="endArrow=classic;html=1;exitX=0.5;exitY=0;exitDx=0;exitDy=0;entryX=0.557;entryY=0.007;entryDx=0;entryDy=0;entryPerimeter=0;" parent="1" source="O35m1b_gPNPNUmbekiKG-22" target="O35m1b_gPNPNUmbekiKG-29" edge="1">
          <mxGeometry width="50" height="50" relative="1" as="geometry">
            <mxPoint x="239" y="214" as="sourcePoint" />
            <mxPoint x="277" y="294" as="targetPoint" />
            <Array as="points">
              <mxPoint x="614" y="264" />
              <mxPoint x="419" y="264" />
              <mxPoint x="273" y="264" />
            </Array>
          </mxGeometry>
        </mxCell>
        <mxCell id="O35m1b_gPNPNUmbekiKG-36" value="" style="shape=flexArrow;endArrow=classic;startArrow=none;html=1;startFill=0;width=208.23529411764707;endSize=23.529411764705884;endWidth=165.60553633217992;" parent="1" edge="1">
          <mxGeometry width="50" height="50" relative="1" as="geometry">
            <mxPoint x="479" y="614" as="sourcePoint" />
            <mxPoint x="479" y="714" as="targetPoint" />
          </mxGeometry>
        </mxCell>
        <mxCell id="eUcBHs-z1_nmx1WXnV4A-7" style="edgeStyle=orthogonalEdgeStyle;rounded=0;orthogonalLoop=1;jettySize=auto;html=1;exitX=0.567;exitY=1.033;exitDx=0;exitDy=0;entryX=0.5;entryY=0;entryDx=0;entryDy=0;exitPerimeter=0;" parent="1" source="O35m1b_gPNPNUmbekiKG-29" target="eUcBHs-z1_nmx1WXnV4A-1" edge="1">
          <mxGeometry relative="1" as="geometry">
            <mxPoint x="274" y="414" as="sourcePoint" />
          </mxGeometry>
        </mxCell>
        <mxCell id="eUcBHs-z1_nmx1WXnV4A-1" value="&lt;span style=&quot;font-size: 24px&quot;&gt;Policy Network&lt;/span&gt;" style="rounded=1;whiteSpace=wrap;html=1;fillColor=#dae8fc;strokeColor=#6c8ebf;" parent="1" vertex="1">
          <mxGeometry x="169" y="424" width="210" height="80" as="geometry" />
        </mxCell>
        <mxCell id="l-rTfrSbGHxLT8yHpG9K-2" value="&lt;font style=&quot;font-size: 41px&quot;&gt;QUIC&lt;/font&gt;" style="text;html=1;align=center;verticalAlign=middle;resizable=0;points=[];autosize=1;" parent="1" vertex="1">
          <mxGeometry x="839" y="368" width="120" height="30" as="geometry" />
        </mxCell>
        <mxCell id="DKsKnXpjUulsUTAk1TxJ-13" value="&lt;span style=&quot;font-size: 41px&quot;&gt;Application&amp;nbsp;&lt;/span&gt;" style="text;html=1;align=center;verticalAlign=middle;resizable=0;points=[];autosize=1;" vertex="1" parent="1">
          <mxGeometry x="788" y="180" width="222" height="28" as="geometry" />
        </mxCell>
        <mxCell id="DKsKnXpjUulsUTAk1TxJ-11" value="&lt;span style=&quot;font-size: 41px&quot;&gt;Kernel&amp;nbsp;&lt;/span&gt;" style="text;html=1;align=center;verticalAlign=middle;resizable=0;points=[];autosize=1;" vertex="1" parent="1">
          <mxGeometry x="829" y="565" width="140" height="28" as="geometry" />
        </mxCell>
        <mxCell id="DKsKnXpjUulsUTAk1TxJ-1" value="&lt;font style=&quot;font-size: 24px&quot;&gt;&lt;span style=&quot;font-family: &amp;#34;cmmi10&amp;#34; ; color: rgb(35 , 31 , 32) ; font-style: italic&quot;&gt;getsockopt&lt;/span&gt;&lt;span style=&quot;font-family: &amp;#34;cmr10&amp;#34; ; color: rgb(35 , 31 , 32)&quot;&gt;()&lt;/span&gt;&lt;/font&gt;" style="text;html=1;align=center;verticalAlign=middle;resizable=0;points=[];autosize=1;" vertex="1" parent="1">
          <mxGeometry x="519" y="519" width="130" height="20" as="geometry" />
        </mxCell>
        <mxCell id="DKsKnXpjUulsUTAk1TxJ-2" value="&lt;font style=&quot;font-size: 24px&quot;&gt;&lt;span style=&quot;font-family: &amp;#34;cmmi10&amp;#34; ; color: rgb(35 , 31 , 32) ; font-style: italic&quot;&gt;setsockopt&lt;/span&gt;&lt;span style=&quot;font-family: &amp;#34;cmr10&amp;#34; ; color: rgb(35 , 31 , 32)&quot;&gt;()&lt;/span&gt;&lt;/font&gt;" style="text;html=1;align=center;verticalAlign=middle;resizable=0;points=[];autosize=1;" vertex="1" parent="1">
          <mxGeometry x="279" y="518.5" width="126" height="21" as="geometry" />
        </mxCell>
        <mxCell id="DKsKnXpjUulsUTAk1TxJ-3" value="&lt;font style=&quot;font-size: 24px&quot;&gt;Reward&lt;/font&gt;" style="text;html=1;align=center;verticalAlign=middle;resizable=0;points=[];autosize=1;" vertex="1" parent="1">
          <mxGeometry x="468" y="384" width="93" height="21" as="geometry" />
        </mxCell>
        <mxCell id="DKsKnXpjUulsUTAk1TxJ-4" value="&lt;font style=&quot;font-size: 24px&quot;&gt;State&lt;/font&gt;" style="text;html=1;align=center;verticalAlign=middle;resizable=0;points=[];autosize=1;" vertex="1" parent="1">
          <mxGeometry x="401" y="384" width="66" height="21" as="geometry" />
        </mxCell>
        <mxCell id="DKsKnXpjUulsUTAk1TxJ-5" value="&lt;font style=&quot;font-size: 24px&quot;&gt;Action&lt;/font&gt;" style="text;html=1;align=center;verticalAlign=middle;resizable=0;points=[];autosize=1;" vertex="1" parent="1">
          <mxGeometry x="295" y="384" width="76" height="21" as="geometry" />
        </mxCell>
        <mxCell id="DKsKnXpjUulsUTAk1TxJ-7" value="&lt;font style=&quot;font-size: 24px&quot;&gt;Upadate&lt;/font&gt;" style="text;html=1;align=center;verticalAlign=middle;resizable=0;points=[];autosize=1;" vertex="1" parent="1">
          <mxGeometry x="169" y="384" width="101" height="21" as="geometry" />
        </mxCell>
        <mxCell id="DKsKnXpjUulsUTAk1TxJ-9" value="&lt;font style=&quot;font-size: 24px&quot;&gt;Sampled transition&lt;/font&gt;" style="text;html=1;align=center;verticalAlign=middle;resizable=0;points=[];autosize=1;" vertex="1" parent="1">
          <mxGeometry x="339" y="239" width="209" height="21" as="geometry" />
        </mxCell>
      </root>
    </mxGraphModel>
  </diagram>
  <diagram id="VBoSmbZO04cfnFMGYThz" name="Definition">
    <mxGraphModel dx="679" dy="387" grid="0" gridSize="10" guides="1" tooltips="1" connect="1" arrows="1" fold="1" page="1" pageScale="1" pageWidth="1100" pageHeight="850" math="0" shadow="0">
      <root>
        <mxCell id="o4Xeo9cxnikCKIsq15cX-0" />
        <mxCell id="o4Xeo9cxnikCKIsq15cX-1" parent="o4Xeo9cxnikCKIsq15cX-0" />
        <mxCell id="o4Xeo9cxnikCKIsq15cX-10" value="&lt;font face=&quot;Times New Roman&quot;&gt;&lt;i&gt;SI&lt;sub&gt;1&lt;/sub&gt;&lt;/i&gt;&lt;/font&gt;" style="rounded=0;whiteSpace=wrap;html=1;" vertex="1" parent="o4Xeo9cxnikCKIsq15cX-1">
          <mxGeometry x="160" y="140" width="120" height="60" as="geometry" />
        </mxCell>
        <mxCell id="o4Xeo9cxnikCKIsq15cX-11" value="&lt;i style=&quot;font-family: &amp;#34;times new roman&amp;#34;&quot;&gt;SI&lt;span style=&quot;font-size: 10px&quot;&gt;2&lt;/span&gt;&lt;/i&gt;" style="rounded=0;whiteSpace=wrap;html=1;" vertex="1" parent="o4Xeo9cxnikCKIsq15cX-1">
          <mxGeometry x="280" y="140" width="120" height="60" as="geometry" />
        </mxCell>
        <mxCell id="o4Xeo9cxnikCKIsq15cX-13" value="&lt;font face=&quot;times new roman&quot;&gt;&lt;i&gt;...&lt;/i&gt;&lt;/font&gt;" style="rounded=0;whiteSpace=wrap;html=1;" vertex="1" parent="o4Xeo9cxnikCKIsq15cX-1">
          <mxGeometry x="400" y="140" width="120" height="60" as="geometry" />
        </mxCell>
        <mxCell id="o4Xeo9cxnikCKIsq15cX-15" value="&lt;i style=&quot;font-family: &amp;#34;times new roman&amp;#34;&quot;&gt;SI&lt;span style=&quot;font-size: 10px&quot;&gt;n&lt;/span&gt;&lt;/i&gt;" style="rounded=0;whiteSpace=wrap;html=1;" vertex="1" parent="o4Xeo9cxnikCKIsq15cX-1">
          <mxGeometry x="520" y="140" width="120" height="60" as="geometry" />
        </mxCell>
        <mxCell id="_3bEBk1LBJpsCrLfA-rE-0" value="&lt;font face=&quot;Times New Roman&quot;&gt;&lt;i&gt;Episode&amp;nbsp;&lt;/i&gt;&lt;/font&gt;" style="text;html=1;align=center;verticalAlign=middle;resizable=0;points=[];autosize=1;" vertex="1" parent="o4Xeo9cxnikCKIsq15cX-1">
          <mxGeometry x="592" y="108" width="52" height="18" as="geometry" />
        </mxCell>
      </root>
    </mxGraphModel>
  </diagram>
  <diagram id="PGY9qV_ddsSZVNCRA-MY" name="Definition_2">
    <mxGraphModel dx="562" dy="320" grid="0" gridSize="10" guides="1" tooltips="1" connect="1" arrows="1" fold="1" page="1" pageScale="1" pageWidth="1100" pageHeight="850" math="0" shadow="0">
      <root>
        <mxCell id="Y606NLw9z8LSmeyzamds-0" />
        <mxCell id="Y606NLw9z8LSmeyzamds-1" parent="Y606NLw9z8LSmeyzamds-0" />
        <mxCell id="Y606NLw9z8LSmeyzamds-2" value="&lt;font face=&quot;Times New Roman&quot;&gt;&lt;i&gt;SI&lt;sub&gt;1&lt;/sub&gt;&lt;/i&gt;&lt;/font&gt;" style="rounded=0;whiteSpace=wrap;html=1;" vertex="1" parent="Y606NLw9z8LSmeyzamds-1">
          <mxGeometry x="160" y="140" width="120" height="60" as="geometry" />
        </mxCell>
        <mxCell id="Y606NLw9z8LSmeyzamds-3" value="&lt;i style=&quot;font-family: &amp;#34;times new roman&amp;#34;&quot;&gt;SI&lt;span style=&quot;font-size: 10px&quot;&gt;2&lt;/span&gt;&lt;/i&gt;" style="rounded=0;whiteSpace=wrap;html=1;" vertex="1" parent="Y606NLw9z8LSmeyzamds-1">
          <mxGeometry x="280" y="140" width="120" height="60" as="geometry" />
        </mxCell>
        <mxCell id="Y606NLw9z8LSmeyzamds-4" value="&lt;font face=&quot;times new roman&quot;&gt;&lt;i&gt;...&lt;/i&gt;&lt;/font&gt;" style="rounded=0;whiteSpace=wrap;html=1;" vertex="1" parent="Y606NLw9z8LSmeyzamds-1">
          <mxGeometry x="400" y="140" width="120" height="60" as="geometry" />
        </mxCell>
        <mxCell id="Y606NLw9z8LSmeyzamds-5" value="&lt;i style=&quot;font-family: &amp;#34;times new roman&amp;#34;&quot;&gt;SI&lt;span style=&quot;font-size: 10px&quot;&gt;n&lt;/span&gt;&lt;/i&gt;" style="rounded=0;whiteSpace=wrap;html=1;" vertex="1" parent="Y606NLw9z8LSmeyzamds-1">
          <mxGeometry x="520" y="140" width="120" height="60" as="geometry" />
        </mxCell>
        <mxCell id="Y606NLw9z8LSmeyzamds-6" value="" style="endArrow=none;html=1;" edge="1" parent="Y606NLw9z8LSmeyzamds-1">
          <mxGeometry width="50" height="50" relative="1" as="geometry">
            <mxPoint x="110" y="250" as="sourcePoint" />
            <mxPoint x="160" y="200" as="targetPoint" />
          </mxGeometry>
        </mxCell>
        <mxCell id="Y606NLw9z8LSmeyzamds-7" value="" style="endArrow=none;html=1;" edge="1" parent="Y606NLw9z8LSmeyzamds-1">
          <mxGeometry width="50" height="50" relative="1" as="geometry">
            <mxPoint x="330" y="250" as="sourcePoint" />
            <mxPoint x="280" y="200" as="targetPoint" />
          </mxGeometry>
        </mxCell>
        <mxCell id="Y606NLw9z8LSmeyzamds-8" value="&lt;font style=&quot;font-size: 24px&quot;&gt;&lt;i&gt;&lt;font face=&quot;Times New Roman&quot;&gt;s&lt;sub&gt;t =&amp;nbsp;&lt;/sub&gt;&lt;/font&gt;&lt;/i&gt;&lt;i&gt;&lt;font face=&quot;Times New Roman&quot; style=&quot;font-size: 24px&quot;&gt;s&lt;sub&gt;t,1&lt;/sub&gt;,&amp;nbsp;&lt;/font&gt;&lt;/i&gt;&lt;i&gt;&lt;font face=&quot;Times New Roman&quot; style=&quot;font-size: 24px&quot;&gt;s&lt;sub&gt;t,2&lt;/sub&gt;&lt;/font&gt;&lt;/i&gt;&lt;/font&gt;&lt;i style=&quot;font-size: 24px&quot;&gt;&lt;font face=&quot;Times New Roman&quot;&gt;, ...&lt;/font&gt;&lt;/i&gt;&lt;i style=&quot;font-size: 24px&quot;&gt;&lt;font face=&quot;Times New Roman&quot;&gt;,&amp;nbsp;&lt;/font&gt;&lt;/i&gt;&lt;i style=&quot;font-size: 24px&quot;&gt;&lt;font face=&quot;Times New Roman&quot;&gt;s&lt;sub&gt;t,n&lt;/sub&gt;&lt;/font&gt;&lt;/i&gt;" style="text;html=1;align=center;verticalAlign=middle;resizable=0;points=[];autosize=1;" vertex="1" parent="Y606NLw9z8LSmeyzamds-1">
          <mxGeometry x="118" y="244" width="192" height="24" as="geometry" />
        </mxCell>
        <mxCell id="iSAx-SffTU5hjNBsO_Nv-0" value="&lt;font face=&quot;Times New Roman&quot;&gt;&lt;i&gt;Episode&amp;nbsp;&lt;/i&gt;&lt;/font&gt;" style="text;html=1;align=center;verticalAlign=middle;resizable=0;points=[];autosize=1;" vertex="1" parent="Y606NLw9z8LSmeyzamds-1">
          <mxGeometry x="592" y="108" width="52" height="18" as="geometry" />
        </mxCell>
        <mxCell id="cRtjjOVD9alZbBg3pGzc-0" value="&lt;span style=&quot;font-size: 24px&quot;&gt;&lt;font face=&quot;Times New Roman&quot;&gt;&lt;i&gt;s&lt;/i&gt;&lt;i&gt;&lt;sub&gt;t,1&lt;/sub&gt;&lt;/i&gt;&lt;i style=&quot;vertical-align: sub&quot;&gt; = &lt;/i&gt;(&lt;i&gt;x&lt;sub&gt;t,i&lt;/sub&gt; , w&lt;/i&gt;&lt;/font&gt;&lt;/span&gt;&lt;i style=&quot;font-family: &amp;#34;times new roman&amp;#34; ; font-size: 24px&quot;&gt;&lt;sub&gt;t,i&lt;/sub&gt;&lt;/i&gt;&lt;span style=&quot;font-size: 24px&quot;&gt;&lt;font face=&quot;Times New Roman&quot;&gt;&lt;i&gt;, d&lt;/i&gt;&lt;/font&gt;&lt;/span&gt;&lt;i style=&quot;font-family: &amp;#34;times new roman&amp;#34; ; font-size: 24px&quot;&gt;&lt;sub&gt;t,i&lt;/sub&gt;&lt;/i&gt;&lt;span style=&quot;font-size: 24px&quot;&gt;&lt;font face=&quot;Times New Roman&quot;&gt;&lt;i&gt;, u&lt;/i&gt;&lt;/font&gt;&lt;/span&gt;&lt;i style=&quot;font-family: &amp;#34;times new roman&amp;#34; ; font-size: 24px&quot;&gt;&lt;sub&gt;t,i&lt;/sub&gt;&lt;/i&gt;&lt;span style=&quot;font-size: 24px&quot;&gt;&lt;font face=&quot;Times New Roman&quot;&gt;&lt;i&gt;, v&lt;/i&gt;&lt;/font&gt;&lt;/span&gt;&lt;i style=&quot;font-family: &amp;#34;times new roman&amp;#34; ; font-size: 24px&quot;&gt;&lt;sub&gt;t,i&lt;/sub&gt;&lt;/i&gt;&lt;font face=&quot;Times New Roman&quot;&gt;&lt;span style=&quot;font-size: 24px&quot;&gt;)&lt;/span&gt;&lt;br&gt;&lt;div style=&quot;text-align: left&quot;&gt;&lt;span style=&quot;font-family: &amp;#34;helvetica&amp;#34; ; text-align: center ; font-size: 24px&quot;&gt;&lt;font face=&quot;Times New Roman&quot;&gt;&lt;i&gt;x&lt;sub&gt;t,i&lt;/sub&gt;&amp;nbsp;-&lt;/i&gt; stream &lt;i&gt;throughout &lt;/i&gt;in&lt;i&gt; SI&lt;sub&gt;t&lt;/sub&gt;&amp;nbsp;&lt;/i&gt;&lt;/font&gt;&lt;/span&gt;&lt;/div&gt;&lt;div style=&quot;text-align: left&quot;&gt;&lt;span style=&quot;font-family: &amp;#34;helvetica&amp;#34; ; text-align: center ; font-size: 24px&quot;&gt;&lt;font face=&quot;Times New Roman&quot;&gt;&lt;i&gt;w&lt;/i&gt;&lt;/font&gt;&lt;/span&gt;&lt;i style=&quot;text-align: center ; font-family: &amp;#34;times new roman&amp;#34; ; font-size: 24px&quot;&gt;&lt;sub&gt;t,i&lt;/sub&gt; - &lt;/i&gt;&lt;span style=&quot;text-align: center ; font-family: &amp;#34;times new roman&amp;#34; ; font-size: 24px&quot;&gt;stream&lt;/span&gt;&lt;i style=&quot;text-align: center ; font-family: &amp;#34;times new roman&amp;#34; ; font-size: 24px&quot;&gt; CWND size&lt;/i&gt;&lt;/div&gt;&lt;div style=&quot;text-align: left&quot;&gt;&lt;span style=&quot;font-family: &amp;#34;helvetica&amp;#34; ; text-align: center ; font-size: 24px&quot;&gt;&lt;font face=&quot;Times New Roman&quot;&gt;&lt;i&gt;d&lt;/i&gt;&lt;/font&gt;&lt;/span&gt;&lt;i style=&quot;text-align: center ; font-family: &amp;#34;times new roman&amp;#34; ; font-size: 24px&quot;&gt;&lt;sub&gt;t,i &lt;/sub&gt;- &lt;/i&gt;&lt;span style=&quot;text-align: center ; font-family: &amp;#34;times new roman&amp;#34; ; font-size: 24px&quot;&gt;stream &lt;/span&gt;&lt;i style=&quot;text-align: center ; font-family: &amp;#34;times new roman&amp;#34; ; font-size: 24px&quot;&gt;mean RTT&amp;nbsp;&amp;nbsp;&lt;/i&gt;&lt;/div&gt;&lt;div style=&quot;text-align: left&quot;&gt;&lt;span style=&quot;font-family: &amp;#34;helvetica&amp;#34; ; text-align: center ; font-size: 24px&quot;&gt;&lt;font face=&quot;Times New Roman&quot;&gt;&lt;i&gt;u&lt;/i&gt;&lt;/font&gt;&lt;/span&gt;&lt;i style=&quot;text-align: center ; font-family: &amp;#34;times new roman&amp;#34; ; font-size: 24px&quot;&gt;&lt;sub&gt;t,i&amp;nbsp;&lt;/sub&gt;- &lt;/i&gt;&lt;span style=&quot;text-align: center ; font-family: &amp;#34;times new roman&amp;#34; ; font-size: 24px&quot;&gt;stream &lt;i&gt;number of unACKed packets&lt;/i&gt;&lt;/span&gt;&lt;/div&gt;&lt;div style=&quot;text-align: left&quot;&gt;&lt;span style=&quot;font-family: &amp;#34;helvetica&amp;#34; ; text-align: center ; font-size: 24px&quot;&gt;&lt;font face=&quot;Times New Roman&quot;&gt;&lt;i&gt;v&lt;/i&gt;&lt;/font&gt;&lt;/span&gt;&lt;i style=&quot;text-align: center ; font-family: &amp;#34;times new roman&amp;#34; ; font-size: 24px&quot;&gt;&lt;sub&gt;t,i &lt;/sub&gt;- &lt;/i&gt;&lt;span style=&quot;text-align: center ; font-family: &amp;#34;times new roman&amp;#34; ; font-size: 24px&quot;&gt;stream&lt;/span&gt;&lt;i style=&quot;text-align: center ; font-family: &amp;#34;times new roman&amp;#34; ; font-size: 24px&quot;&gt;&amp;nbsp;number of retransmitted packets&lt;/i&gt;&lt;/div&gt;&lt;br&gt;&lt;br&gt;&lt;br&gt;&lt;/font&gt;" style="text;html=1;align=center;verticalAlign=middle;resizable=0;points=[];autosize=1;" vertex="1" parent="Y606NLw9z8LSmeyzamds-1">
          <mxGeometry x="122.5" y="322" width="436" height="167" as="geometry" />
        </mxCell>
      </root>
    </mxGraphModel>
  </diagram>
</mxfile>
